<?xml version="1.0" encoding="UTF-8" standalone="no"?>
<!-- Generator: Adobe Illustrator 19.0.0, SVG Export Plug-In . SVG Version: 6.00 Build 0)  -->

<svg
   version="1.1"
   id="Layer_1"
   x="0px"
   y="0px"
   viewBox="0 0 512 512"
   style="enable-background:new 0 0 512 512;"
   xml:space="preserve"
   sodipodi:docname="silatik.svg"
   inkscape:version="1.2 (dc2aedaf03, 2022-05-15)"
   inkscape:export-filename="mail-svgrepo-com.png"
   inkscape:export-xdpi="18"
   inkscape:export-ydpi="18"
   xmlns:inkscape="http://www.inkscape.org/namespaces/inkscape"
   xmlns:sodipodi="http://sodipodi.sourceforge.net/DTD/sodipodi-0.dtd"
   xmlns="http://www.w3.org/2000/svg"
   xmlns:svg="http://www.w3.org/2000/svg"><defs
   id="defs47" /><sodipodi:namedview
   id="namedview45"
   pagecolor="#ffffff"
   bordercolor="#000000"
   borderopacity="0.25"
   inkscape:showpageshadow="2"
   inkscape:pageopacity="0.0"
   inkscape:pagecheckerboard="0"
   inkscape:deskcolor="#d1d1d1"
   showgrid="false"
   inkscape:zoom="0.82714845"
   inkscape:cx="288.94451"
   inkscape:cy="216.40614"
   inkscape:window-width="1920"
   inkscape:window-height="1027"
   inkscape:window-x="-8"
   inkscape:window-y="-8"
   inkscape:window-maximized="1"
   inkscape:current-layer="Layer_1" />
<path
   style="fill:#6777ef;fill-opacity:1"
   d="M483.556,453.86H53.276C23.9,453.86,0,429.959,0,400.583V111.417C0,82.041,23.9,58.14,53.276,58.14  h405.447c29.376,0,53.276,23.9,53.276,53.276v222.807c0,7.855-6.367,14.222-14.222,14.222s-14.222-6.367-14.222-14.222V111.417  c0-13.692-11.14-24.832-24.832-24.832H53.276c-13.692,0-24.832,11.14-24.832,24.832v289.166c0,13.692,11.14,24.832,24.832,24.832  h430.279c7.855,0,14.222,6.367,14.222,14.222S491.411,453.86,483.556,453.86z"
   id="path2" />
<path
   style="fill:#6777ef;fill-opacity:1"
   d="M497.778,111.417L497.778,111.417L256,294.542L14.222,111.417l0,0  c0-21.569,17.485-39.054,39.054-39.054h405.447C480.293,72.363,497.778,89.847,497.778,111.417z"
   id="path4" />
<g
   id="g12">
	<path
   style="fill:#6777ef;fill-opacity:1"
   d="M256,308.764c-3.024,0-6.047-0.961-8.587-2.884L5.635,122.755C2.085,120.065,0,115.87,0,111.417   C0,82.041,23.9,58.14,53.276,58.14h405.447c29.376,0,53.276,23.9,53.276,53.276c0,4.453-2.085,8.649-5.635,11.338L264.587,305.88   C262.047,307.803,259.024,308.764,256,308.764z M29.288,104.987L256,276.7l226.712-171.713   c-2.84-10.586-12.518-18.402-23.989-18.402H53.276C41.808,86.585,32.128,94.401,29.288,104.987z"
   id="path6" />
	<path
   style="fill:#6777ef;fill-opacity:1"
   d="M483.544,453.662c-2.992,0-6.007-0.94-8.576-2.886l-99.556-75.405   c-6.262-4.742-7.494-13.663-2.751-19.924c4.743-6.262,13.663-7.494,19.924-2.751l99.556,75.405   c6.262,4.742,7.494,13.663,2.751,19.924C492.095,451.719,487.844,453.662,483.544,453.662z"
   id="path8" />
	<path
   style="fill:#6777ef;fill-opacity:1"
   d="M34.524,449.065c-4.301,0-8.55-1.943-11.348-5.636c-4.742-6.261-3.511-15.182,2.751-19.924   l93.487-70.808c6.261-4.74,15.181-3.511,19.924,2.751c4.742,6.261,3.511,15.182-2.751,19.924L43.102,446.18   C40.533,448.125,37.517,449.065,34.524,449.065z"
   id="path10" />
</g>
<g
   id="g14">
</g>
<g
   id="g16">
</g>
<g
   id="g18">
</g>
<g
   id="g20">
</g>
<g
   id="g22">
</g>
<g
   id="g24">
</g>
<g
   id="g26">
</g>
<g
   id="g28">
</g>
<g
   id="g30">
</g>
<g
   id="g32">
</g>
<g
   id="g34">
</g>
<g
   id="g36">
</g>
<g
   id="g38">
</g>
<g
   id="g40">
</g>
<g
   id="g42">
</g>
</svg>
